{"accessors":[{"bufferView":0,"componentType":5125,"count":12,"max":[5.0],"min":[0.0],"type":"SCALAR"},{"bufferView":1,"componentType":5126,"count":6,"max":[0.2712707221508026,0.30165746808052065,0.30000001192092898],"min":[-0.2287292778491974,-0.09834253787994385,0.30000001192092898],"type":"VEC3"},{"bufferView":2,"componentType":5126,"count":6,"max":[0.0,0.0,1.0],"min":[0.0,0.0,1.0],"type":"VEC3"},{"bufferView":3,"componentType":5125,"count":42,"max":[25.0],"min":[0.0],"type":"SCALAR"},{"bufferView":4,"componentType":5126,"count":26,"max":[0.2712707221508026,0.30165746808052065,0.30000001192092898],"min":[-0.2287292778491974,-0.09834253787994385,0.0],"type":"VEC3"},{"bufferView":5,"componentType":5126,"count":26,"max":[1.0,1.0,0.0],"min":[-1.0,-1.0,-1.0],"type":"VEC3"},{"bufferView":6,"componentType":5125,"count":6,"max":[3.0],"min":[0.0],"type":"SCALAR"},{"bufferView":7,"componentType":5126,"count":4,"max":[0.07127071917057038,0.1016574576497078,0.30000001192092898],"min":[-0.2287292778491974,0.1016574576497078,0.0],"type":"VEC3"},{"bufferView":8,"componentType":5126,"count":4,"max":[0.0,1.0,0.0],"min":[0.0,1.0,0.0],"type":"VEC3"}],"asset":{"generator":"SimLab GLTF","version":"2.0"},"bufferViews":[{"buffer":0,"byteLength":48,"target":34963},{"buffer":0,"byteLength":72,"byteOffset":48,"byteStride":12,"target":34962},{"buffer":0,"byteLength":72,"byteOffset":120,"byteStride":12,"target":34962},{"buffer":0,"byteLength":168,"byteOffset":192,"target":34963},{"buffer":0,"byteLength":312,"byteOffset":360,"byteStride":12,"target":34962},{"buffer":0,"byteLength":312,"byteOffset":672,"byteStride":12,"target":34962},{"buffer":0,"byteLength":24,"byteOffset":984,"target":34963},{"buffer":0,"byteLength":48,"byteOffset":1008,"byteStride":12,"target":34962},{"buffer":0,"byteLength":48,"byteOffset":1056,"byteStride":12,"target":34962}],"buffers":[{"byteLength":1104,"uri":"3D-second.bin"}],"extensionsUsed":["KHR_materials_pbrSpecularGlossiness"],"materials":[{"extensions":{"KHR_materials_pbrSpecularGlossiness":{"diffuseFactor":[1.0,0.14509804546833039,0.0,1.0],"specularFactor":[0.5,0.07254902273416519,0.0],"glossinessFactor":0.5}},"name":"Mtl1","alphaMode":"MASK","doubleSided":true,"pbrMetallicRoughness":{"baseColorFactor":[1.0,0.14509804546833039,0.0,1.0],"metallicFactor":0.5,"roughnessFactor":0.5}},{"extensions":{"KHR_materials_pbrSpecularGlossiness":{"diffuseFactor":[0.7921568751335144,0.8196078538894653,0.9333333373069763,1.0],"specularFactor":[0.3960784375667572,0.40980392694473269,0.46666666865348818],"glossinessFactor":0.5}},"name":"Mtl","alphaMode":"MASK","doubleSided":true,"pbrMetallicRoughness":{"baseColorFactor":[0.7921568751335144,0.8196078538894653,0.9333333373069763,1.0],"metallicFactor":0.5,"roughnessFactor":0.5}},{"extensions":{"KHR_materials_pbrSpecularGlossiness":{"diffuseFactor":[0.0,1.0,0.0,1.0],"specularFactor":[0.0,0.5,0.0],"glossinessFactor":0.5}},"name":"Mtl2","alphaMode":"MASK","doubleSided":true,"pbrMetallicRoughness":{"baseColorFactor":[0.0,1.0,0.0,1.0],"metallicFactor":0.5}}],"meshes":[{"primitives":[{"attributes":{"NORMAL":2,"POSITION":1},"indices":0,"material":0,"mode":4}]},{"primitives":[{"attributes":{"NORMAL":5,"POSITION":4},"indices":3,"material":1,"mode":4}]},{"primitives":[{"attributes":{"NORMAL":8,"POSITION":7},"indices":6,"material":2,"mode":4}]}],"nodes":[{"children":[1,2],"matrix":[1.0,0.0,0.0,0.0,0.0,4.4896593387466768e-11,-1.0,0.0,0.0,1.0,4.4896593387466768e-11,0.0,0.0,0.0,0.0,1.0]},{"name":"Camera-1","rotation":[-0.7071067690849304,0.0,0.0,-0.7071067690849304],"translation":[0.021270722150802614,-1.898342490196228,0.15000000596046449]},{"name":"Body_1","children":[3,6,9],"rotation":[0.0,0.0,0.0,-1.0]},{"name":"3DGeom-9","children":[5],"rotation":[0.0,0.0,0.0,-1.0]},{"mesh":0},{"children":[4]},{"name":"3DGeom-10","children":[8],"rotation":[0.0,0.0,0.0,-1.0]},{"mesh":1},{"children":[7]},{"name":"3DGeom-11","children":[11],"rotation":[0.0,0.0,0.0,-1.0]},{"mesh":2},{"children":[10]}],"scene":0,"scenes":[{"nodes":[0]}]}