{"accessors":[{"bufferView":0,"componentType":5125,"count":12,"max":[5.0],"min":[0.0],"type":"SCALAR"},{"bufferView":1,"componentType":5126,"count":6,"max":[0.2712707221508026,0.30165746808052065,0.0],"min":[-0.2287292778491974,-0.09834253787994385,0.0],"type":"VEC3"},{"bufferView":2,"componentType":5126,"count":6,"max":[0.0,0.0,-1.0],"min":[0.0,0.0,-1.0],"type":"VEC3"},{"bufferView":3,"componentType":5125,"count":6,"max":[3.0],"min":[0.0],"type":"SCALAR"},{"bufferView":4,"componentType":5126,"count":4,"max":[-0.028729282319545747,0.0016574586043134332,0.30000001192092898],"min":[-0.028729282319545747,-0.09834253787994385,0.10000000149011612],"type":"VEC3"},{"bufferView":5,"componentType":5126,"count":4,"max":[-1.0,0.0,0.0],"min":[-1.0,0.0,0.0],"type":"VEC3"},{"bufferView":6,"componentType":5125,"count":18,"max":[7.0],"min":[0.0],"type":"SCALAR"},{"bufferView":7,"componentType":5126,"count":8,"max":[0.2712707221508026,0.30165746808052065,0.30000001192092898],"min":[-0.2287292778491974,-0.09834253787994385,0.30000001192092898],"type":"VEC3"},{"bufferView":8,"componentType":5126,"count":8,"max":[0.0,0.0,1.0],"min":[0.0,0.0,1.0],"type":"VEC3"},{"bufferView":9,"componentType":5125,"count":6,"max":[3.0],"min":[0.0],"type":"SCALAR"},{"bufferView":10,"componentType":5126,"count":4,"max":[0.2712707221508026,0.30165746808052065,0.30000001192092898],"min":[0.2712707221508026,-0.09834253787994385,0.1988997906446457],"type":"VEC3"},{"bufferView":11,"componentType":5126,"count":4,"max":[1.0,0.0,0.0],"min":[1.0,0.0,0.0],"type":"VEC3"},{"bufferView":12,"componentType":5125,"count":6,"max":[3.0],"min":[0.0],"type":"SCALAR"},{"bufferView":13,"componentType":5126,"count":4,"max":[0.1712707132101059,0.30165746808052065,0.1988997906446457],"min":[0.1712707132101059,-0.09834253787994385,0.09889979660511017],"type":"VEC3"},{"bufferView":14,"componentType":5126,"count":4,"max":[1.0,1.1102230246251566e-16,0.0],"min":[1.0,1.1102230246251566e-16,0.0],"type":"VEC3"},{"bufferView":15,"componentType":5125,"count":6,"max":[3.0],"min":[0.0],"type":"SCALAR"},{"bufferView":16,"componentType":5126,"count":4,"max":[0.07127071917057038,0.30165746808052065,0.30000001192092898],"min":[0.07127071917057038,0.1016574576497078,0.0],"type":"VEC3"},{"bufferView":17,"componentType":5126,"count":4,"max":[-1.0,0.0,0.0],"min":[-1.0,0.0,0.0],"type":"VEC3"},{"bufferView":18,"componentType":5125,"count":6,"max":[3.0],"min":[0.0],"type":"SCALAR"},{"bufferView":19,"componentType":5126,"count":4,"max":[-0.028729282319545747,0.0016574586043134332,0.30000001192092898],"min":[-0.2287292778491974,0.0016574586043134332,0.10000000149011612],"type":"VEC3"},{"bufferView":20,"componentType":5126,"count":4,"max":[0.0,-1.0,0.0],"min":[0.0,-1.0,0.0],"type":"VEC3"},{"bufferView":21,"componentType":5125,"count":6,"max":[3.0],"min":[0.0],"type":"SCALAR"},{"bufferView":22,"componentType":5126,"count":4,"max":[-0.028729282319545747,0.0016574586043134332,0.10000000149011612],"min":[-0.2287292778491974,-0.09834253787994385,0.10000000149011612],"type":"VEC3"},{"bufferView":23,"componentType":5126,"count":4,"max":[0.0,0.0,1.0],"min":[0.0,0.0,1.0],"type":"VEC3"},{"bufferView":24,"componentType":5125,"count":6,"max":[3.0],"min":[0.0],"type":"SCALAR"},{"bufferView":25,"componentType":5126,"count":4,"max":[0.2712707221508026,0.30165746808052065,0.1988997906446457],"min":[0.1712707132101059,-0.09834253787994385,0.1988997906446457],"type":"VEC3"},{"bufferView":26,"componentType":5126,"count":4,"max":[0.0,0.0,-1.0],"min":[0.0,0.0,-1.0],"type":"VEC3"},{"bufferView":27,"componentType":5125,"count":18,"max":[7.0],"min":[0.0],"type":"SCALAR"},{"bufferView":28,"componentType":5126,"count":8,"max":[0.2712707221508026,0.30165746808052065,0.30000001192092898],"min":[0.07127071917057038,0.30165746808052065,0.0],"type":"VEC3"},{"bufferView":29,"componentType":5126,"count":8,"max":[-1.1102230246251566e-16,1.0,0.0],"min":[-1.1102230246251566e-16,1.0,0.0],"type":"VEC3"},{"bufferView":30,"componentType":5125,"count":6,"max":[3.0],"min":[0.0],"type":"SCALAR"},{"bufferView":31,"componentType":5126,"count":4,"max":[0.2712707221508026,0.30165746808052065,0.09889979660511017],"min":[0.1712707132101059,-0.09834253787994385,0.09889979660511017],"type":"VEC3"},{"bufferView":32,"componentType":5126,"count":4,"max":[2.7755575615628915e-16,3.0814879110195776e-32,1.0],"min":[2.7755575615628915e-16,3.0814879110195776e-32,1.0],"type":"VEC3"},{"bufferView":33,"componentType":5125,"count":12,"max":[5.0],"min":[0.0],"type":"SCALAR"},{"bufferView":34,"componentType":5126,"count":6,"max":[-0.2287292778491974,0.1016574576497078,0.30000001192092898],"min":[-0.2287292778491974,-0.09834253787994385,0.0],"type":"VEC3"},{"bufferView":35,"componentType":5126,"count":6,"max":[-1.0,-6.938893903907228e-17,0.0],"min":[-1.0,-6.938893903907228e-17,0.0],"type":"VEC3"},{"bufferView":36,"componentType":5125,"count":6,"max":[3.0],"min":[0.0],"type":"SCALAR"},{"bufferView":37,"componentType":5126,"count":4,"max":[0.07127071917057038,0.1016574576497078,0.30000001192092898],"min":[-0.2287292778491974,0.1016574576497078,0.0],"type":"VEC3"},{"bufferView":38,"componentType":5126,"count":4,"max":[0.0,1.0,0.0],"min":[0.0,1.0,0.0],"type":"VEC3"},{"bufferView":39,"componentType":5125,"count":24,"max":[9.0],"min":[0.0],"type":"SCALAR"},{"bufferView":40,"componentType":5126,"count":10,"max":[0.2712707221508026,-0.09834253787994385,0.30000001192092898],"min":[-0.2287292778491974,-0.09834253787994385,0.0],"type":"VEC3"},{"bufferView":41,"componentType":5126,"count":10,"max":[1.3877787807814457e-16,-1.0,0.0],"min":[1.3877787807814457e-16,-1.0,0.0],"type":"VEC3"},{"bufferView":42,"componentType":5125,"count":6,"max":[3.0],"min":[0.0],"type":"SCALAR"},{"bufferView":43,"componentType":5126,"count":4,"max":[0.2712707221508026,0.30165746808052065,0.09889979660511017],"min":[0.2712707221508026,-0.09834253787994385,0.0],"type":"VEC3"},{"bufferView":44,"componentType":5126,"count":4,"max":[1.0,0.0,0.0],"min":[1.0,0.0,0.0],"type":"VEC3"}],"asset":{"generator":"SimLab GLTF","version":"2.0"},"bufferViews":[{"buffer":0,"byteLength":48,"target":34963},{"buffer":0,"byteLength":72,"byteOffset":48,"byteStride":12,"target":34962},{"buffer":0,"byteLength":72,"byteOffset":120,"byteStride":12,"target":34962},{"buffer":0,"byteLength":24,"byteOffset":192,"target":34963},{"buffer":0,"byteLength":48,"byteOffset":216,"byteStride":12,"target":34962},{"buffer":0,"byteLength":48,"byteOffset":264,"byteStride":12,"target":34962},{"buffer":0,"byteLength":72,"byteOffset":312,"target":34963},{"buffer":0,"byteLength":96,"byteOffset":384,"byteStride":12,"target":34962},{"buffer":0,"byteLength":96,"byteOffset":480,"byteStride":12,"target":34962},{"buffer":0,"byteLength":24,"byteOffset":576,"target":34963},{"buffer":0,"byteLength":48,"byteOffset":600,"byteStride":12,"target":34962},{"buffer":0,"byteLength":48,"byteOffset":648,"byteStride":12,"target":34962},{"buffer":0,"byteLength":24,"byteOffset":696,"target":34963},{"buffer":0,"byteLength":48,"byteOffset":720,"byteStride":12,"target":34962},{"buffer":0,"byteLength":48,"byteOffset":768,"byteStride":12,"target":34962},{"buffer":0,"byteLength":24,"byteOffset":816,"target":34963},{"buffer":0,"byteLength":48,"byteOffset":840,"byteStride":12,"target":34962},{"buffer":0,"byteLength":48,"byteOffset":888,"byteStride":12,"target":34962},{"buffer":0,"byteLength":24,"byteOffset":936,"target":34963},{"buffer":0,"byteLength":48,"byteOffset":960,"byteStride":12,"target":34962},{"buffer":0,"byteLength":48,"byteOffset":1008,"byteStride":12,"target":34962},{"buffer":0,"byteLength":24,"byteOffset":1056,"target":34963},{"buffer":0,"byteLength":48,"byteOffset":1080,"byteStride":12,"target":34962},{"buffer":0,"byteLength":48,"byteOffset":1128,"byteStride":12,"target":34962},{"buffer":0,"byteLength":24,"byteOffset":1176,"target":34963},{"buffer":0,"byteLength":48,"byteOffset":1200,"byteStride":12,"target":34962},{"buffer":0,"byteLength":48,"byteOffset":1248,"byteStride":12,"target":34962},{"buffer":0,"byteLength":72,"byteOffset":1296,"target":34963},{"buffer":0,"byteLength":96,"byteOffset":1368,"byteStride":12,"target":34962},{"buffer":0,"byteLength":96,"byteOffset":1464,"byteStride":12,"target":34962},{"buffer":0,"byteLength":24,"byteOffset":1560,"target":34963},{"buffer":0,"byteLength":48,"byteOffset":1584,"byteStride":12,"target":34962},{"buffer":0,"byteLength":48,"byteOffset":1632,"byteStride":12,"target":34962},{"buffer":0,"byteLength":48,"byteOffset":1680,"target":34963},{"buffer":0,"byteLength":72,"byteOffset":1728,"byteStride":12,"target":34962},{"buffer":0,"byteLength":72,"byteOffset":1800,"byteStride":12,"target":34962},{"buffer":0,"byteLength":24,"byteOffset":1872,"target":34963},{"buffer":0,"byteLength":48,"byteOffset":1896,"byteStride":12,"target":34962},{"buffer":0,"byteLength":48,"byteOffset":1944,"byteStride":12,"target":34962},{"buffer":0,"byteLength":96,"byteOffset":1992,"target":34963},{"buffer":0,"byteLength":120,"byteOffset":2088,"byteStride":12,"target":34962},{"buffer":0,"byteLength":120,"byteOffset":2208,"byteStride":12,"target":34962},{"buffer":0,"byteLength":24,"byteOffset":2328,"target":34963},{"buffer":0,"byteLength":48,"byteOffset":2352,"byteStride":12,"target":34962},{"buffer":0,"byteLength":48,"byteOffset":2400,"byteStride":12,"target":34962}],"buffers":[{"byteLength":2448,"uri":"last3d.bin"}],"extensionsUsed":["KHR_materials_pbrSpecularGlossiness"],"materials":[{"extensions":{"KHR_materials_pbrSpecularGlossiness":{"diffuseFactor":[0.9882352948188782,0.7372549176216126,0.5176470875740051,1.0],"specularFactor":[0.4941176474094391,0.3686274588108063,0.25882354378700259],"glossinessFactor":0.5}},"name":"Mtl6","alphaMode":"MASK","doubleSided":true,"pbrMetallicRoughness":{"baseColorFactor":[0.9882352948188782,0.7372549176216126,0.5176470875740051,1.0],"metallicFactor":0.5,"roughnessFactor":0.5}},{"extensions":{"KHR_materials_pbrSpecularGlossiness":{"diffuseFactor":[1.0,1.0,0.7529411911964417,1.0],"specularFactor":[0.5,0.5,0.3764705955982208],"glossinessFactor":0.5}},"name":"Mtl8","alphaMode":"MASK","doubleSided":true,"pbrMetallicRoughness":{"baseColorFactor":[1.0,1.0,0.7529411911964417,1.0],"metallicFactor":0.5,"roughnessFactor":0.5}},{"extensions":{"KHR_materials_pbrSpecularGlossiness":{"diffuseFactor":[1.0,0.14509804546833039,0.0,1.0],"specularFactor":[0.5,0.07254902273416519,0.0],"glossinessFactor":0.5}},"name":"Mtl3","alphaMode":"MASK","doubleSided":true,"pbrMetallicRoughness":{"baseColorFactor":[1.0,0.14509804546833039,0.0,1.0],"metallicFactor":0.5,"roughnessFactor":0.5}},{"extensions":{"KHR_materials_pbrSpecularGlossiness":{"diffuseFactor":[1.0,0.501960813999176,1.0,1.0],"specularFactor":[0.5,0.250980406999588,0.5],"glossinessFactor":0.5}},"name":"Mtl1","alphaMode":"MASK","doubleSided":true,"pbrMetallicRoughness":{"baseColorFactor":[1.0,0.501960813999176,1.0,1.0],"metallicFactor":0.5,"roughnessFactor":0.5}},{"extensions":{"KHR_materials_pbrSpecularGlossiness":{"diffuseFactor":[0.501960813999176,0.501960813999176,1.0,1.0],"specularFactor":[0.250980406999588,0.250980406999588,0.5],"glossinessFactor":0.5}},"name":"Mtlb","alphaMode":"MASK","doubleSided":true,"pbrMetallicRoughness":{"baseColorFactor":[0.501960813999176,0.501960813999176,1.0,1.0],"metallicFactor":0.5,"roughnessFactor":0.5}},{"extensions":{"KHR_materials_pbrSpecularGlossiness":{"diffuseFactor":[1.0,0.7529411911964417,0.7529411911964417,1.0],"specularFactor":[0.5,0.3764705955982208,0.3764705955982208],"glossinessFactor":0.5}},"name":"Mtl11","alphaMode":"MASK","doubleSided":true,"pbrMetallicRoughness":{"baseColorFactor":[1.0,0.7529411911964417,0.7529411911964417,1.0],"metallicFactor":0.5,"roughnessFactor":0.5}},{"extensions":{"KHR_materials_pbrSpecularGlossiness":{"diffuseFactor":[0.7529411911964417,1.0,1.0,1.0],"specularFactor":[0.3764705955982208,0.5,0.5],"glossinessFactor":0.5}},"name":"Mtl7","alphaMode":"MASK","doubleSided":true,"pbrMetallicRoughness":{"baseColorFactor":[0.7529411911964417,1.0,1.0,1.0],"metallicFactor":0.5,"roughnessFactor":0.5}},{"extensions":{"KHR_materials_pbrSpecularGlossiness":{"diffuseFactor":[0.7529411911964417,1.0,0.7529411911964417,1.0],"specularFactor":[0.3764705955982208,0.5,0.3764705955982208],"glossinessFactor":0.5}},"name":"Mtl9","alphaMode":"MASK","doubleSided":true,"pbrMetallicRoughness":{"baseColorFactor":[0.7529411911964417,1.0,0.7529411911964417,1.0],"metallicFactor":0.5,"roughnessFactor":0.5}},{"extensions":{"KHR_materials_pbrSpecularGlossiness":{"diffuseFactor":[0.501960813999176,1.0,1.0,1.0],"specularFactor":[0.250980406999588,0.5,0.5],"glossinessFactor":0.5}},"name":"Mtla","alphaMode":"MASK","doubleSided":true,"pbrMetallicRoughness":{"baseColorFactor":[0.501960813999176,1.0,1.0,1.0],"metallicFactor":0.5,"roughnessFactor":0.5}},{"extensions":{"KHR_materials_pbrSpecularGlossiness":{"diffuseFactor":[1.0,0.7529411911964417,1.0,1.0],"specularFactor":[0.5,0.3764705955982208,0.5],"glossinessFactor":0.5}},"name":"Mtl5","alphaMode":"MASK","doubleSided":true,"pbrMetallicRoughness":{"baseColorFactor":[1.0,0.7529411911964417,1.0,1.0],"metallicFactor":0.5,"roughnessFactor":0.5}},{"extensions":{"KHR_materials_pbrSpecularGlossiness":{"diffuseFactor":[0.501960813999176,1.0,0.501960813999176,1.0],"specularFactor":[0.250980406999588,0.5,0.250980406999588],"glossinessFactor":0.5}},"name":"Mtl10","alphaMode":"MASK","doubleSided":true,"pbrMetallicRoughness":{"baseColorFactor":[0.501960813999176,1.0,0.501960813999176,1.0],"metallicFactor":0.5,"roughnessFactor":0.5}},{"extensions":{"KHR_materials_pbrSpecularGlossiness":{"diffuseFactor":[0.9960784316062927,0.8705882430076599,0.7607843279838562,1.0],"specularFactor":[0.49803921580314639,0.43529412150382998,0.3803921639919281],"glossinessFactor":0.5}},"name":"Mtl2","alphaMode":"MASK","doubleSided":true,"pbrMetallicRoughness":{"baseColorFactor":[0.9960784316062927,0.8705882430076599,0.7607843279838562,1.0],"metallicFactor":0.5,"roughnessFactor":0.5}},{"extensions":{"KHR_materials_pbrSpecularGlossiness":{"diffuseFactor":[0.0,1.0,0.0,1.0],"specularFactor":[0.0,0.5,0.0],"glossinessFactor":0.5}},"name":"Mtl12","alphaMode":"MASK","doubleSided":true,"pbrMetallicRoughness":{"baseColorFactor":[0.0,1.0,0.0,1.0],"metallicFactor":0.5}},{"extensions":{"KHR_materials_pbrSpecularGlossiness":{"diffuseFactor":[0.7921568751335144,0.8196078538894653,0.9333333373069763,1.0],"specularFactor":[0.3960784375667572,0.40980392694473269,0.46666666865348818],"glossinessFactor":0.5}},"name":"Mtl","alphaMode":"MASK","doubleSided":true,"pbrMetallicRoughness":{"baseColorFactor":[0.7921568751335144,0.8196078538894653,0.9333333373069763,1.0],"metallicFactor":0.5,"roughnessFactor":0.5}},{"extensions":{"KHR_materials_pbrSpecularGlossiness":{"diffuseFactor":[1.0,1.0,0.501960813999176,1.0],"specularFactor":[0.5,0.5,0.250980406999588],"glossinessFactor":0.5}},"name":"Mtl4","alphaMode":"MASK","doubleSided":true,"pbrMetallicRoughness":{"baseColorFactor":[1.0,1.0,0.501960813999176,1.0],"metallicFactor":0.5,"roughnessFactor":0.5}}],"meshes":[{"primitives":[{"attributes":{"NORMAL":2,"POSITION":1},"indices":0,"material":0,"mode":4}]},{"primitives":[{"attributes":{"NORMAL":5,"POSITION":4},"indices":3,"material":1,"mode":4}]},{"primitives":[{"attributes":{"NORMAL":8,"POSITION":7},"indices":6,"material":2,"mode":4}]},{"primitives":[{"attributes":{"NORMAL":11,"POSITION":10},"indices":9,"material":3,"mode":4}]},{"primitives":[{"attributes":{"NORMAL":14,"POSITION":13},"indices":12,"material":4,"mode":4}]},{"primitives":[{"attributes":{"NORMAL":17,"POSITION":16},"indices":15,"material":5,"mode":4}]},{"primitives":[{"attributes":{"NORMAL":20,"POSITION":19},"indices":18,"material":6,"mode":4}]},{"primitives":[{"attributes":{"NORMAL":23,"POSITION":22},"indices":21,"material":7,"mode":4}]},{"primitives":[{"attributes":{"NORMAL":26,"POSITION":25},"indices":24,"material":8,"mode":4}]},{"primitives":[{"attributes":{"NORMAL":29,"POSITION":28},"indices":27,"material":9,"mode":4}]},{"primitives":[{"attributes":{"NORMAL":32,"POSITION":31},"indices":30,"material":10,"mode":4}]},{"primitives":[{"attributes":{"NORMAL":35,"POSITION":34},"indices":33,"material":11,"mode":4}]},{"primitives":[{"attributes":{"NORMAL":38,"POSITION":37},"indices":36,"material":12,"mode":4}]},{"primitives":[{"attributes":{"NORMAL":41,"POSITION":40},"indices":39,"material":13,"mode":4}]},{"primitives":[{"attributes":{"NORMAL":44,"POSITION":43},"indices":42,"material":14,"mode":4}]}],"nodes":[{"children":[1,2],"matrix":[1.0,0.0,0.0,0.0,0.0,4.4896593387466768e-11,-1.0,0.0,0.0,1.0,4.4896593387466768e-11,0.0,0.0,0.0,0.0,1.0]},{"name":"Camera-1","rotation":[-0.7071067690849304,0.0,0.0,-0.7071067690849304],"translation":[0.021270722150802614,-1.898342490196228,0.15000000596046449]},{"name":"Body_1","children":[3,6,9,12,15,18,21,24,27,30,33,36,39,42,45],"rotation":[0.0,0.0,0.0,-1.0]},{"name":"3DGeom-16","children":[5],"rotation":[0.0,0.0,0.0,-1.0]},{"mesh":0},{"children":[4]},{"name":"3DGeom-17","children":[8],"rotation":[0.0,0.0,0.0,-1.0]},{"mesh":1},{"children":[7]},{"name":"3DGeom-18","children":[11],"rotation":[0.0,0.0,0.0,-1.0]},{"mesh":2},{"children":[10]},{"name":"3DGeom-19","children":[14],"rotation":[0.0,0.0,0.0,-1.0]},{"mesh":3},{"children":[13]},{"name":"3DGeom-20","children":[17],"rotation":[0.0,0.0,0.0,-1.0]},{"mesh":4},{"children":[16]},{"name":"3DGeom-21","children":[20],"rotation":[0.0,0.0,0.0,-1.0]},{"mesh":5},{"children":[19]},{"name":"3DGeom-22","children":[23],"rotation":[0.0,0.0,0.0,-1.0]},{"mesh":6},{"children":[22]},{"name":"3DGeom-23","children":[26],"rotation":[0.0,0.0,0.0,-1.0]},{"mesh":7},{"children":[25]},{"name":"3DGeom-24","children":[29],"rotation":[0.0,0.0,0.0,-1.0]},{"mesh":8},{"children":[28]},{"name":"3DGeom-25","children":[32],"rotation":[0.0,0.0,0.0,-1.0]},{"mesh":9},{"children":[31]},{"name":"3DGeom-26","children":[35],"rotation":[0.0,0.0,0.0,-1.0]},{"mesh":10},{"children":[34]},{"name":"3DGeom-27","children":[38],"rotation":[0.0,0.0,0.0,-1.0]},{"mesh":11},{"children":[37]},{"name":"3DGeom-28","children":[41],"rotation":[0.0,0.0,0.0,-1.0]},{"mesh":12},{"children":[40]},{"name":"3DGeom-29","children":[44],"rotation":[0.0,0.0,0.0,-1.0]},{"mesh":13},{"children":[43]},{"name":"3DGeom-30","children":[47],"rotation":[0.0,0.0,0.0,-1.0]},{"mesh":14},{"children":[46]}],"scene":0,"scenes":[{"nodes":[0]}]}