<?xml version="1.0" encoding="utf-8"?>
<!-- Generator: Adobe Illustrator 23.0.2, SVG Export Plug-In . SVG Version: 6.00 Build 0)  -->
<svg version="1.1" id="Layer_1" xmlns="http://www.w3.org/2000/svg" xmlns:xlink="http://www.w3.org/1999/xlink" x="0px" y="0px"
	 viewBox="0 0 160.6 101.1" style="enable-background:new 0 0 160.6 101.1;" xml:space="preserve">
<style type="text/css">
	.st0{fill:none;stroke:#000000;stroke-width:0.5;stroke-miterlimit:10;stroke-dasharray:3;}
	.st1{fill:none;stroke:#000000;stroke-width:0.5;stroke-miterlimit:10;}
	.st2{font-family:'TimesNewRomanPSMT';}
	.st3{font-size:14.0539px;}
	.st4{font-size:7.6658px;}
</style>
<circle class="st0" cx="110.1" cy="50.6" r="50.3"/>
<line class="st1" x1="115.9" y1="63.8" x2="136.8" y2="38.4"/>
<line class="st1" x1="113.4" y1="60.9" x2="134.6" y2="35.2"/>
<line class="st1" x1="111.1" y1="57.9" x2="131" y2="33.7"/>
<line class="st1" x1="76.4" y1="64.3" x2="97" y2="81.1"/>
<line class="st1" x1="77.5" y1="60.5" x2="98.9" y2="78.1"/>
<line class="st1" x1="72.9" y1="66.3" x2="96" y2="85.8"/>
<line class="st1" x1="79.9" y1="57.7" x2="101.8" y2="75.8"/>
<line class="st1" x1="117.3" y1="74.6" x2="108.5" y2="100.8"/>
<line class="st1" x1="121.4" y1="75" x2="112.5" y2="100.8"/>
<line class="st1" x1="129.1" y1="77.1" x2="121.3" y2="99.8"/>
<line class="st1" x1="132.8" y1="77.1" x2="125.7" y2="98.4"/>
<line class="st1" x1="125.4" y1="76.1" x2="117.1" y2="100.4"/>
<line class="st1" x1="137.2" y1="75.9" x2="130.3" y2="96.6"/>
<line class="st1" x1="107.8" y1="55.5" x2="128.6" y2="30.2"/>
<line class="st1" x1="105.3" y1="52.5" x2="124.8" y2="29.2"/>
<line class="st1" x1="120.7" y1="1.4" x2="90.3" y2="4.3"/>
<line class="st1" x1="122" y1="5.1" x2="81.9" y2="8.9"/>
<line class="st1" x1="122.4" y1="8.8" x2="81.9" y2="13"/>
<line class="st1" x1="124.8" y1="12.7" x2="84" y2="16.7"/>
<line class="st1" x1="124.9" y1="15.9" x2="83.7" y2="19.9"/>
<line class="st1" x1="69.5" y1="29.2" x2="61.6" y2="37"/>
<line class="st1" x1="73.1" y1="30.9" x2="60.2" y2="43.6"/>
<line class="st1" x1="75.6" y1="34.6" x2="59.8" y2="50.6"/>
<line class="st1" x1="77.9" y1="36.9" x2="59.8" y2="54.7"/>
<line class="st1" x1="81.9" y1="38.4" x2="60.6" y2="59.8"/>
<line class="st1" x1="84.4" y1="41" x2="61.5" y2="63.8"/>
<line class="st1" x1="160.1" y1="52.5" x2="146.8" y2="47.2"/>
<line class="st1" x1="160.1" y1="56.2" x2="146.8" y2="50.9"/>
<line class="st1" x1="159.8" y1="60.9" x2="146.3" y2="55.5"/>
<line class="st1" x1="158.2" y1="65.4" x2="145.2" y2="60.1"/>
<line class="st1" x1="156.7" y1="69.4" x2="141.4" y2="63.3"/>
<line class="st1" x1="155.4" y1="72.4" x2="139" y2="65.9"/>
<line class="st1" x1="153.4" y1="76.2" x2="139.2" y2="70.5"/>
<line class="st1" x1="68.2" y1="48.8" x2="46.4" y2="43.2"/>
<text transform="matrix(1 0 0 1 22.6888 48.5067)" class="st2 st3">α+</text>
<text transform="matrix(1 0 0 1 37.9888 48.5067)" class="st2 st3">B</text>
<text transform="matrix(1 0 0 1 18.8362 58.2655)" class="st2 st4">(eutectic)</text>
<path class="st1" d="M117.3,74.7c6.3-0.6,14.2,5.6,19.8,1.2"/>
<path class="st1" d="M139.4,70.3c-1-1.2-1-3.1-0.4-4.5s1.8-2.5,3-3.4c0.9-0.6,1.8-1.1,2.6-1.9c1.5-1.6,2-4,2-6.3s-0.5-4.6-0.5-6.9
	c0.2-0.1,0.4-0.1,0.7-0.2"/>
<path class="st1" d="M105.3,52.5c0.2,0,0.3,0,0.5,0c-0.1,0.6-0.1,1.2,0.2,1.7c0.7,1.4,3,1.3,4,2.5c0.3,0.3,0.4,0.7,0.6,1.1
	c0.7,1.5,1.9,2.8,3.4,3.6c0.5,0.2,0.9,0.5,1.3,0.8s0.6,0.9,0.5,1.3"/>
<path class="st1" d="M124.8,29.2c1.1-0.3,2.5-0.1,3.4,0.6c1,0.8,1.6,2.1,2.3,3.2c0.5,0.7,1.1,1.4,1.9,1.6c0.7,0.2,1.4,0.1,2,0.4
	c1.3,0.6,1.4,2.4,2.5,3.3"/>
<path class="st1" d="M79.9,57.7c-0.2-0.3-0.7-0.3-1-0.2c-0.3,0.2-0.5,0.5-0.7,0.8c-0.5,1-0.8,2.2-1,3.3c-0.3,1.1-0.6,2.3-1.3,3.2
	c-0.7,0.9-1.8,1.6-3,1.5"/>
<path class="st1" d="M96,85.8c0.2-1.4,0.3-2.8,0.8-4.1c0.4-1.3,1.1-2.6,2.1-3.5c0.3-0.2,0.6-0.5,0.9-0.6s0.6-0.1,0.8-0.2
	c0.7-0.2,1.1-0.9,1.1-1.6"/>
<path class="st1" d="M81.9,8.9c-0.7,0.2-1,1-1,1.7c0,0.9,0.5,1.7,1.1,2.4c0.6,0.7,1.2,1.4,1.6,2.2c0.7,1.5,0.5,3.2,0.2,4.8"/>
<path class="st1" d="M119.7,1.4c0.5-0.2,1.1,0,1.4,0.3s0.6,0.9,0.7,1.4c0.4,1.9-0.3,4,0.6,5.7c0.4,0.8,1,1.3,1.5,2
	c1,1.4,1.4,3.4,0.9,5.1"/>
<path class="st1" d="M69.2,29.4c2,0.1,3.9,1.1,5.1,2.8c0.8,1.2,1.2,2.6,2.2,3.6c1.1,1.2,2.7,1.7,4.2,2.3s3.1,1.4,3.7,2.9"/>
</svg>
