<?xml version="1.0" encoding="utf-8"?>
<!-- Generator: Adobe Illustrator 23.0.2, SVG Export Plug-In . SVG Version: 6.00 Build 0)  -->
<svg version="1.1" id="Layer_1" xmlns="http://www.w3.org/2000/svg" xmlns:xlink="http://www.w3.org/1999/xlink" x="0px" y="0px"
	 viewBox="0 0 160.6 101.1" style="enable-background:new 0 0 160.6 101.1;" xml:space="preserve">
<style type="text/css">
	.st0{fill:none;stroke:#000000;stroke-width:0.5;stroke-miterlimit:10;stroke-dasharray:3;}
	.st1{fill:none;stroke:#000000;stroke-miterlimit:10;}
	.st2{fill:none;stroke:#000000;stroke-width:0.5;stroke-miterlimit:10;}
	.st3{fill:#FFFFFF;stroke:#000000;stroke-width:1.5;stroke-miterlimit:10;}
	.st4{font-family:'TimesNewRomanPSMT';}
	.st5{font-size:14.0539px;}
	.st6{font-size:7.6658px;}
</style>
<g id="XMLID_1_">
	<g id="XMLID_2_">
		<circle class="st0" cx="110.1" cy="50.6" r="50.3"/>
		<line class="st1" x1="104.4" y1="77.8" x2="151" y2="21.3"/>
		<line class="st1" x1="101.5" y1="75.4" x2="148.6" y2="18.2"/>
		<line class="st1" x1="107.3" y1="80.2" x2="153.1" y2="24.6"/>
		<line class="st1" x1="98.6" y1="73" x2="146.1" y2="15.4"/>
		<line class="st1" x1="68" y1="57.4" x2="108.1" y2="90.5"/>
		<line class="st1" x1="70.6" y1="54.8" x2="109.3" y2="86.7"/>
		<line class="st1" x1="65.2" y1="60.1" x2="106.7" y2="94.3"/>
		<line class="st1" x1="73.3" y1="52.1" x2="110.7" y2="82.9"/>
		<line class="st1" x1="114.7" y1="71.2" x2="104.7" y2="100.6"/>
		<line class="st1" x1="121.3" y1="63.2" x2="108.5" y2="100.8"/>
		<line class="st1" x1="128.1" y1="55" x2="112.5" y2="100.8"/>
		<line class="st1" x1="142.6" y1="37.4" x2="121.3" y2="99.8"/>
		<line class="st1" x1="149.2" y1="29.4" x2="125.7" y2="98.4"/>
		<line class="st1" x1="135.6" y1="46.1" x2="117.1" y2="100.4"/>
		<line class="st1" x1="154.2" y1="26.4" x2="130.3" y2="96.6"/>
		<line class="st1" x1="95.3" y1="70.5" x2="142.8" y2="12.9"/>
		<line class="st1" x1="92.8" y1="68.2" x2="140.2" y2="10.6"/>
		<line class="st1" x1="120.7" y1="1.4" x2="90.3" y2="4.3"/>
		<line class="st1" x1="129.8" y1="4.3" x2="81.9" y2="8.9"/>
		<line class="st1" x1="136" y1="7.5" x2="76.4" y2="13.2"/>
		<line class="st1" x1="139.6" y1="11.4" x2="71.8" y2="17.9"/>
		<line class="st1" x1="136.6" y1="15" x2="69" y2="21.5"/>
		<line class="st1" x1="132.8" y1="19.7" x2="67.1" y2="26"/>
		<line class="st1" x1="129.7" y1="23.4" x2="64.3" y2="29.7"/>
		<line class="st1" x1="69.5" y1="29.2" x2="61.6" y2="37"/>
		<line class="st1" x1="75.5" y1="28.6" x2="60.2" y2="43.6"/>
		<line class="st1" x1="82.3" y1="27.9" x2="59.8" y2="50.6"/>
		<line class="st1" x1="87.5" y1="27.4" x2="59.8" y2="54.7"/>
		<line class="st1" x1="94.5" y1="26.5" x2="60.6" y2="59.8"/>
		<line class="st1" x1="99.6" y1="26.3" x2="61.5" y2="63.8"/>
		<line class="st1" x1="104.1" y1="100.4" x2="103.2" y2="91.5"/>
		<line class="st1" x1="100.3" y1="99.9" x2="99.1" y2="88.1"/>
		<line class="st1" x1="96" y1="98.9" x2="94.6" y2="84.3"/>
		<line class="st1" x1="92.5" y1="97.7" x2="90.8" y2="81.2"/>
		<line class="st1" x1="89" y1="95.9" x2="87.2" y2="78.3"/>
		<line class="st1" x1="85" y1="94.2" x2="83.1" y2="74.9"/>
		<line class="st1" x1="80.6" y1="91.2" x2="78.6" y2="71.1"/>
		<line class="st1" x1="76.8" y1="88.3" x2="74.9" y2="68.1"/>
		<line class="st1" x1="73.2" y1="84.8" x2="71.3" y2="65.1"/>
		<line class="st1" x1="69.1" y1="79.7" x2="67.3" y2="61.5"/>
		<line class="st1" x1="64.5" y1="72" x2="63.5" y2="61.3"/>
		<line class="st1" x1="156.8" y1="32" x2="152.6" y2="30.3"/>
		<line class="st1" x1="158.4" y1="36.7" x2="151.6" y2="34"/>
		<line class="st1" x1="159.5" y1="41.2" x2="150.4" y2="37.6"/>
		<line class="st1" x1="160" y1="44.3" x2="149.4" y2="40.2"/>
		<line class="st1" x1="160.3" y1="48" x2="148.3" y2="43.2"/>
		<line class="st1" x1="160.1" y1="52.5" x2="146.8" y2="47.2"/>
		<line class="st1" x1="160.1" y1="56.2" x2="146" y2="50.6"/>
		<line class="st1" x1="159.8" y1="60.9" x2="144.5" y2="54.8"/>
		<line class="st1" x1="158.2" y1="65.4" x2="143" y2="59.3"/>
		<line class="st1" x1="156.7" y1="69.4" x2="141.4" y2="63.3"/>
		<line class="st1" x1="155.4" y1="72.4" x2="140.5" y2="66.5"/>
		<line class="st1" x1="153.4" y1="76.2" x2="139.2" y2="70.5"/>
		<line class="st1" x1="151.5" y1="79.1" x2="138.1" y2="73.8"/>
		<line class="st1" x1="149.3" y1="82" x2="136.9" y2="77.1"/>
		<line class="st1" x1="146.3" y1="85.4" x2="135.6" y2="81.2"/>
		<line class="st1" x1="143.7" y1="87.9" x2="134.5" y2="84.3"/>
		<line class="st1" x1="139.9" y1="91" x2="133.1" y2="88.3"/>
		<line class="st1" x1="136.5" y1="93.3" x2="131.9" y2="91.5"/>
		<line class="st1" x1="126.2" y1="27.6" x2="124.6" y2="23.9"/>
		<line class="st1" x1="123.5" y1="30.9" x2="120.6" y2="24.3"/>
		<line class="st1" x1="120.8" y1="34.2" x2="116.7" y2="24.6"/>
		<line class="st1" x1="117.8" y1="37.8" x2="112.4" y2="25.1"/>
		<line class="st1" x1="115.2" y1="40.5" x2="108.8" y2="25.4"/>
		<line class="st1" x1="112.7" y1="44" x2="104.9" y2="25.8"/>
		<line class="st1" x1="109.8" y1="46.8" x2="100.8" y2="25.8"/>
		<line class="st1" x1="107.1" y1="50.8" x2="97.4" y2="28.3"/>
		<line class="st1" x1="104.4" y1="53.4" x2="94.8" y2="31"/>
		<line class="st1" x1="93.5" y1="67.2" x2="88.8" y2="36.7"/>
		<line class="st1" x1="89.6" y1="65.9" x2="85.6" y2="39.6"/>
		<line class="st1" x1="85.2" y1="61.9" x2="82.3" y2="43.3"/>
		<line class="st1" x1="80.4" y1="58" x2="78.7" y2="46.9"/>
		<line class="st1" x1="76.4" y1="54.7" x2="75.7" y2="49.8"/>
		<line class="st1" x1="99.1" y1="60.2" x2="103" y2="50.1"/>
		<line class="st1" x1="93.2" y1="65.2" x2="100.9" y2="45.1"/>
		<line class="st1" x1="92.1" y1="57.6" x2="98.7" y2="40.1"/>
		<line class="st1" x1="90.8" y1="49.3" x2="96.4" y2="34.5"/>
		<line class="st1" x1="89.7" y1="42.5" x2="93.7" y2="32"/>
	</g>
	<line class="st2" x1="68.2" y1="48.8" x2="46.4" y2="43.2"/>
	<path id="XMLID_3_" class="st3" d="M104.2,13.2c-0.7-0.2-1.5-0.4-2.2-0.2c-0.7,0.1-1.3,0.6-1.8,1c-1.8,1.4-3.7,2.7-5.5,4.1
		c-2.2,1.6-5,3.3-7.3,2c-0.3-0.2-0.6-0.4-0.9-0.3s-0.5,0.4-0.6,0.6c-1.5,2.8-2.8,5.8-2.9,9s1.3,6.5,4,8.1c2,1.2,4.6,1.2,6.8,0.3
		c2.2-0.9,3.9-2.7,5-4.8c0.4-0.7,0.7-1.6,1.4-2c0.6-0.3,1.3-0.3,2-0.3c1.4,0,2.8,0.1,4.1,0.1c0.4,0,0.9,0,1.3-0.2s0.6-0.6,0.8-1
		C111.1,23.8,111.1,15.3,104.2,13.2z"/>
	<path id="XMLID_4_" class="st3" d="M89.6,56.9c-1.6,1.8-5,1.3-6.2,3.3c-0.5,0.8-0.5,1.9-1,2.7c-0.7,1.2-2.2,1.7-3.4,2.3
		c-1.2,0.6-2.2,1.4-2.8,2.6c-0.6,1.1-0.7,2.6,0,3.7c0.6,0.8,1.5,1.3,2.5,1.6c0.4,0.1,0.8,0.2,1.1,0.5c0.5,0.5,0.5,1.4,0.5,2.1
		c0,2.6,1.5,5.1,3.8,6.3s5.3,1,7.4-0.5c0.6-0.4,1.2-1,1.9-1.2c1.6-0.6,3.3,0.2,4.8,1c1.5,0.7,3.4,1.3,4.8,0.4
		c0.5-0.4,0.9-0.9,1.2-1.5c0.7-1,1.3-2.1,1.9-3.1c1-1.6,1.9-3.5,1.4-5.3c-0.5-1.7-2.1-2.7-3-4.2c-1.3-2.2-0.9-5-0.7-7.6
		c0-0.4,0.1-0.8-0.1-1.1c-0.1-0.3-0.3-0.5-0.6-0.7c-1.9-1.8-4.4-2.8-6.9-3.1c-1.3-0.1-2.5,0-3.7,0.1C90.9,55.3,90.7,55.8,89.6,56.9z
		"/>
	<path class="st3" d="M130.8,42.4c0.7-1.4,1.2-2.8,2.3-3.9c2.3-2.3,6.8-2.3,11.1,0.1c1.1,0.6,2.2,1.4,2.9,2.4
		c0.6,0.9,0.8,1.8,1.1,2.7c0.7,2.8,1.1,5.7,0.7,8.1c-0.4,2.1-1.5,3.8-2.6,5.5c-0.9,1.4-1.9,2.8-2.8,4.2c-1.1,1.6-2.2,3.3-4,4.1
		s-4.6,0.6-7-1.2c-1.8-1.4-3.2-3.4-4.9-4.9c-1.2-1-2.7-1.7-3.8-2.9c-3.2-3.2,0.8-5.3,2-6.6C127.6,47.7,129.4,45.3,130.8,42.4z"/>
	<text id="XMLID_7_" transform="matrix(1 0 0 1 131.9416 56.0086)" class="st4 st5">α</text>
	<text id="XMLID_8_" transform="matrix(1 0 0 1 92.4571 29.1795)" class="st4 st5">α</text>
	<text id="XMLID_9_" transform="matrix(1 0 0 1 87.4789 73.7823)" class="st4 st5">α</text>
	<text transform="matrix(1 0 0 1 22.6888 48.5067)" class="st4 st5">α+</text>
	<text transform="matrix(1 0 0 1 37.9888 48.5067)" class="st4 st5">B</text>
	<text transform="matrix(1 0 0 1 18.8362 58.2655)" class="st4 st6">(eutectic)</text>
</g>
</svg>
