<?xml version="1.0" encoding="utf-8"?>
<!-- Generator: Adobe Illustrator 23.0.2, SVG Export Plug-In . SVG Version: 6.00 Build 0)  -->
<svg version="1.1" id="Layer_1" xmlns="http://www.w3.org/2000/svg" xmlns:xlink="http://www.w3.org/1999/xlink" x="0px" y="0px"
	 viewBox="0 0 113.3 124.4" style="enable-background:new 0 0 113.3 124.4;" xml:space="preserve">
<style type="text/css">
	.st0{fill:none;stroke:#000000;stroke-width:0.5;stroke-miterlimit:10;}
	.st1{fill:none;stroke:#000000;stroke-width:0.5;stroke-miterlimit:10;stroke-dasharray:3;}
	.st2{font-family:'TimesNewRomanPSMT';}
	.st3{font-size:16.7246px;}
</style>
<g id="XMLID_242_">
	<g id="XMLID_10_">
		<g id="XMLID_461_">
			<polygon id="XMLID_13_" points="105.3,50.1 101.7,51.8 102.4,47.6 			"/>
			<polygon id="XMLID_12_" points="95.5,65.8 100.2,68 96.4,69.5 			"/>
			<polygon id="XMLID_11_" points="89.1,77 86.8,79.7 86.2,75.9 			"/>
			<polygon id="XMLID_9_" points="80.2,101.5 80.5,105 78.4,103.3 			"/>
			<polygon id="XMLID_8_" points="71.4,21.2 73.4,23 69.6,22.3 			"/>
			<polygon id="XMLID_7_" points="61.7,72.1 63.4,75.8 57.6,76.9 61.5,72.3 61.6,72.1 			"/>
			<polygon id="XMLID_6_" points="59.5,38.8 58.7,40.6 57.4,39.1 			"/>
			<polygon id="XMLID_5_" points="42.1,106.7 42.3,106.9 44.2,108.3 41.1,110.1 			"/>
			<polygon id="XMLID_4_" points="42.4,84 41.1,87.1 39.5,83.6 			"/>
			<polygon id="XMLID_3_" points="39.5,24 31.5,24.4 35,21.2 			"/>
			<polygon id="XMLID_2_" points="26.6,54.7 23.8,53.5 25.2,51.1 			"/>
			<polygon id="XMLID_1_" points="14.2,73.8 17.3,77 13.6,77.9 			"/>
		</g>
		<g id="XMLID_353_">
			<polyline id="XMLID_241_" class="st0" points="53.7,115.5 44.2,108.3 42.3,106.9 42.1,106.7 			"/>
			<line id="XMLID_238_" class="st0" x1="45.7" y1="97.5" x2="42.4" y2="106.7"/>
			<polyline id="XMLID_237_" class="st0" points="61.5,72.3 57.6,76.9 50.6,85.2 50.6,85.2 			"/>
			<polyline id="XMLID_130_" class="st0" points="42.1,106.7 41.1,110.1 37.9,120.9 37.8,121.2 			"/>
			<line id="XMLID_129_" class="st0" x1="28" y1="103.3" x2="42.1" y2="106.7"/>
			<polyline id="XMLID_128_" class="st0" points="45.7,97.5 41.1,87.1 39.5,83.6 			"/>
			<line id="XMLID_127_" class="st0" x1="23" y1="83.6" x2="39.5" y2="83.6"/>
			<polyline id="XMLID_126_" class="st0" points="28,103.3 19.7,94.9 19.6,94.8 			"/>
			<line id="XMLID_125_" class="st0" x1="23" y1="83.6" x2="19.6" y2="94.8"/>
			<line id="XMLID_124_" class="st0" x1="28" y1="103.3" x2="19.4" y2="110.1"/>
			<line id="XMLID_123_" class="st0" x1="19.7" y1="94.9" x2="8.7" y2="97.5"/>
			<line id="XMLID_122_" class="st0" x1="39.5" y1="83.6" x2="44.7" y2="72.1"/>
			<polyline id="XMLID_121_" class="st0" points="53.3,67.5 53.2,67.5 44.7,72.1 			"/>
			<line id="XMLID_120_" class="st0" x1="53.1" y1="53.4" x2="44.7" y2="50.1"/>
			<line id="XMLID_119_" class="st0" x1="53.3" y1="53.5" x2="53.1" y2="53.4"/>
			<line id="XMLID_118_" class="st0" x1="35" y1="58.4" x2="44.7" y2="50.1"/>
			<line id="XMLID_117_" class="st0" x1="44.7" y1="72.1" x2="35" y2="69.8"/>
			<line id="XMLID_116_" class="st0" x1="35" y1="58.4" x2="35" y2="69.8"/>
			<line id="XMLID_115_" class="st0" x1="23" y1="83.6" x2="17.3" y2="77"/>
			<line id="XMLID_114_" class="st0" x1="35" y1="69.8" x2="17.3" y2="77"/>
			<line id="XMLID_113_" class="st0" x1="26.6" y1="54.7" x2="23.8" y2="53.5"/>
			<line id="XMLID_112_" class="st0" x1="35" y1="58.4" x2="26.6" y2="54.7"/>
			<polyline id="XMLID_111_" class="st0" points="17.3,77 14.2,73.8 10,69.5 			"/>
			<line id="XMLID_110_" class="st0" x1="23.8" y1="53.5" x2="13.6" y2="56"/>
			<line id="XMLID_109_" class="st0" x1="10" y1="69.5" x2="13.6" y2="56"/>
			<polyline id="XMLID_108_" class="st0" points="17.3,77 13.6,77.9 1.9,80.5 			"/>
			<polyline id="XMLID_107_" class="st0" points="10,69.5 0.3,65.8 0.3,65.8 			"/>
			<line id="XMLID_106_" class="st0" x1="13.6" y1="56" x2="3.1" y2="50.1"/>
			<line id="XMLID_105_" class="st0" x1="44.7" y1="50.1" x2="47.7" y2="41.5"/>
			<polyline id="XMLID_104_" class="st0" points="23.8,53.5 25.2,51.1 29.4,43.7 			"/>
			<line id="XMLID_103_" class="st0" x1="47.7" y1="41.1" x2="29.4" y2="43.7"/>
			<line id="XMLID_102_" class="st0" x1="3.9" y1="47.7" x2="10" y2="42.6"/>
			<polyline id="XMLID_101_" class="st0" points="29.4,43.7 29.4,43.7 23,38.6 			"/>
			<line id="XMLID_100_" class="st0" x1="10" y1="42.6" x2="23" y2="38.6"/>
			<polyline id="XMLID_99_" class="st0" points="8.4,38.4 8.4,38.5 10,42.6 			"/>
			<line id="XMLID_98_" class="st0" x1="23" y1="38.6" x2="26.2" y2="29"/>
			<line id="XMLID_97_" class="st0" x1="20.2" y1="24.7" x2="26.2" y2="29"/>
			<polyline id="XMLID_96_" class="st0" points="47.7,41.5 47.7,41.1 47.6,40.6 46.2,28.3 			"/>
			<polyline id="XMLID_95_" class="st0" points="26.2,29 31.5,24.4 35,21.2 			"/>
			<line id="XMLID_94_" class="st0" x1="39.5" y1="24" x2="35" y2="21.2"/>
			<line id="XMLID_93_" class="st0" x1="46.2" y1="28.3" x2="39.5" y2="24"/>
			<line id="XMLID_84_" class="st0" x1="37.8" y1="14.6" x2="35" y2="21.2"/>
			<path id="XMLID_92_" class="st1" d="M98.5,30c1,1.1,1.9,2.2,2.8,3.4c3.2,4.2,5.9,8.8,7.8,13.8c1.2,3.1,2.2,6.3,2.8,9.6
				c0.2,1.2,0.5,2.5,0.6,3.8c0.3,2.4,0.5,4.8,0.5,7.3c0,1.1,0,2.2-0.1,3.3"/>
			<path id="XMLID_91_" class="st1" d="M37.8,14.6c4.9-1.7,10.1-2.8,15.5-3.1c1.1-0.1,2.2-0.1,3.4-0.1c3.8,0,7.6,0.4,11.2,1.1
				c12.1,2.4,22.7,8.7,30.6,17.5"/>
			<line id="XMLID_90_" class="st0" x1="37.8" y1="14.6" x2="37.8" y2="14.6"/>
			<path id="XMLID_89_" class="st1" d="M3.1,50.1c0.3-0.8,0.5-1.6,0.8-2.4c1.2-3.2,2.7-6.2,4.5-9.1c3.2-5.2,7.2-9.9,11.8-13.8
				c5.2-4.4,11.1-7.8,17.6-10.1"/>
			<line id="XMLID_88_" class="st0" x1="3.1" y1="50.1" x2="3.1" y2="50.1"/>
			<path id="XMLID_87_" class="st1" d="M8.7,97.5c-3.2-5.1-5.6-10.8-7-16.9c-0.9-4.1-1.5-8.4-1.5-12.8c0-0.6,0-1.3,0-1.9
				c0.2-5.5,1.1-10.8,2.8-15.7"/>
			<line id="XMLID_86_" class="st0" x1="8.7" y1="97.5" x2="8.7" y2="97.5"/>
			<path id="XMLID_85_" class="st1" d="M112.9,71.1c0,0.7-0.1,1.4-0.2,2.2c-0.8,8.2-3.3,15.9-7.3,22.7c-0.6,1-1.2,2.1-1.9,3.1
				c-3.6,5.3-8,10-13.1,13.8c-6.2,4.7-13.5,8.1-21.4,9.9c-4,0.9-8.2,1.4-12.4,1.4c-2.3,0-4.6-0.1-6.9-0.4c-4.1-0.5-8.1-1.4-11.9-2.8
				c-6.9-2.4-13.1-6.1-18.5-10.8c-4.2-3.7-7.8-7.9-10.7-12.7"/>
			<line id="XMLID_83_" class="st0" x1="63.8" y1="94.8" x2="64.3" y2="106.7"/>
			<line id="XMLID_82_" class="st0" x1="53.7" y1="92.9" x2="63.8" y2="93.6"/>
			<line id="XMLID_81_" class="st0" x1="64.3" y1="106.7" x2="69.1" y2="122.8"/>
			<line id="XMLID_80_" class="st0" x1="78.4" y1="103.3" x2="64.3" y2="106.7"/>
			<polyline id="XMLID_79_" class="st0" points="63.8,94.8 64.1,93.7 66.9,83.6 			"/>
			<line id="XMLID_78_" class="st0" x1="83.4" y1="83.6" x2="66.9" y2="83.6"/>
			<line id="XMLID_77_" class="st0" x1="80.2" y1="101.5" x2="86.8" y2="94.8"/>
			<line id="XMLID_76_" class="st0" x1="78.4" y1="103.3" x2="80.2" y2="101.5"/>
			<line id="XMLID_75_" class="st0" x1="83.4" y1="83.6" x2="86.8" y2="94.8"/>
			<polyline id="XMLID_74_" class="st0" points="78.4,103.3 80.5,105 90.5,112.9 91,113.3 			"/>
			<line id="XMLID_73_" class="st0" x1="86.8" y1="94.8" x2="103.6" y2="99"/>
			<polyline id="XMLID_72_" class="st0" points="66.9,83.6 63.4,75.8 61.7,72.1 			"/>
			<polyline id="XMLID_71_" class="st0" points="53.1,67.5 53.2,67.5 61.6,72.1 61.7,72.1 			"/>
			<polyline id="XMLID_70_" class="st0" points="53.1,53.5 53.1,53.4 53.1,53.4 58.7,40.6 59.5,38.8 59.6,38.6 59.6,38.4 			"/>
			<line id="XMLID_69_" class="st0" x1="71.4" y1="58.4" x2="53.3" y2="53.5"/>
			<line id="XMLID_68_" class="st0" x1="61.7" y1="72.1" x2="71.4" y2="69.8"/>
			<line id="XMLID_67_" class="st0" x1="71.4" y1="58.4" x2="71.4" y2="69.8"/>
			<polyline id="XMLID_66_" class="st0" points="83.4,83.6 86.8,79.7 89.1,77 			"/>
			<polyline id="XMLID_65_" class="st0" points="71.4,69.8 86.2,75.9 89.1,77 			"/>
			<line id="XMLID_64_" class="st0" x1="71.4" y1="58.4" x2="82.6" y2="53.5"/>
			<line id="XMLID_63_" class="st0" x1="89.1" y1="77" x2="96.4" y2="69.5"/>
			<line id="XMLID_62_" class="st0" x1="82.6" y1="53.5" x2="92.8" y2="56"/>
			<polyline id="XMLID_61_" class="st0" points="96.4,69.5 95.5,65.8 92.8,56 			"/>
			<polyline id="XMLID_60_" class="st0" points="89.1,77 104.3,80.5 104.5,80.5 			"/>
			<polyline id="XMLID_59_" class="st0" points="105.5,96.2 105.5,96 104.3,80.5 			"/>
			<line id="XMLID_58_" class="st0" x1="112.8" y1="73.2" x2="104.5" y2="80.5"/>
			<polyline id="XMLID_57_" class="st0" points="96.4,69.5 100.2,68 108.3,65 			"/>
			<line id="XMLID_56_" class="st0" x1="112.9" y1="71.1" x2="108.3" y2="65"/>
			<line id="XMLID_55_" class="st1" x1="112.9" y1="71.1" x2="112.9" y2="71.1"/>
			<polyline id="XMLID_54_" class="st0" points="92.8,56 101.7,51.8 105.3,50.1 			"/>
			<line id="XMLID_53_" class="st0" x1="108.3" y1="65" x2="112.6" y2="60.5"/>
			<line id="XMLID_52_" class="st0" x1="105.3" y1="50.1" x2="112" y2="56.7"/>
			<polyline id="XMLID_51_" class="st0" points="109.5,46.9 109.2,47.2 105.3,50.1 			"/>
			<line id="XMLID_50_" class="st0" x1="82.6" y1="53.5" x2="77" y2="43.7"/>
			<polyline id="XMLID_49_" class="st0" points="59.1,38.4 59.6,38.6 77,43.2 			"/>
			<line id="XMLID_48_" class="st0" x1="102.4" y1="47.6" x2="96.4" y2="42.6"/>
			<line id="XMLID_47_" class="st0" x1="105.3" y1="50.1" x2="102.4" y2="47.6"/>
			<polyline id="XMLID_46_" class="st0" points="77,43.7 77.2,43.5 83.4,38.6 			"/>
			<line id="XMLID_45_" class="st0" x1="96.4" y1="42.6" x2="83.4" y2="38.6"/>
			<line id="XMLID_44_" class="st0" x1="101.3" y1="33.4" x2="96.4" y2="42.6"/>
			<line id="XMLID_43_" class="st0" x1="83.4" y1="38.6" x2="80.2" y2="29"/>
			<line id="XMLID_42_" class="st0" x1="89.1" y1="24.4" x2="80.2" y2="29"/>
			<line id="XMLID_41_" class="st0" x1="98.5" y1="30" x2="89.1" y2="24.4"/>
			<line id="XMLID_40_" class="st1" x1="98.5" y1="30" x2="98.5" y2="30"/>
			<polyline id="XMLID_39_" class="st0" points="80.2,29 73.4,23 71.4,21.2 			"/>
			<polyline id="XMLID_38_" class="st0" points="60.2,28.3 60.4,28.2 69.6,22.3 71.4,21.2 			"/>
			<line id="XMLID_37_" class="st0" x1="67.8" y1="12.7" x2="71.4" y2="21.2"/>
			<line id="XMLID_36_" class="st0" x1="53.1" y1="67.5" x2="53.1" y2="53.5"/>
			<polyline id="XMLID_35_" class="st0" points="64.3,106.7 53.8,115.4 53.7,115.5 			"/>
			<polyline id="XMLID_34_" class="st0" points="50.6,85.2 42.4,84 39.5,83.6 39.5,83.6 			"/>
			<polyline id="XMLID_33_" class="st0" points="53.7,92.9 53.7,92.8 50.6,85.2 			"/>
			<line id="XMLID_32_" class="st0" x1="53.5" y1="92.9" x2="45.7" y2="97.5"/>
			<line id="XMLID_31_" class="st0" x1="60.5" y1="28.3" x2="59.6" y2="38.4"/>
			<polyline id="XMLID_30_" class="st0" points="53.3,11.4 53.3,11.5 49.4,20.7 46.2,28.3 			"/>
			<polyline id="XMLID_29_" class="st0" points="49.3,20.5 49.4,20.7 60.2,28.3 			"/>
			<polyline id="XMLID_28_" class="st0" points="47.7,40.6 57.4,39.1 59.5,38.8 59.6,38.8 			"/>
			<line id="XMLID_27_" class="st0" x1="53.9" y1="115.5" x2="49.8" y2="123.7"/>
			<polyline id="XMLID_26_" class="st0" points="31.5,24.4 39.5,24 39.5,24 			"/>
			<line id="XMLID_25_" class="st0" x1="14.2" y1="73.8" x2="13.6" y2="77.9"/>
			<polyline id="XMLID_24_" class="st0" points="102.4,47.6 102.4,47.6 101.7,51.8 			"/>
			<line id="XMLID_23_" class="st0" x1="95.5" y1="65.8" x2="100.2" y2="68"/>
			<line id="XMLID_22_" class="st0" x1="57.6" y1="76.9" x2="63.4" y2="75.8"/>
			<line id="XMLID_20_" class="st0" x1="57.4" y1="39.1" x2="58.7" y2="40.6"/>
			<line id="XMLID_19_" class="st0" x1="41.1" y1="87.1" x2="42.4" y2="84"/>
			<line id="XMLID_18_" class="st0" x1="86.2" y1="75.9" x2="86.8" y2="79.7"/>
			<line id="XMLID_17_" class="st0" x1="41.1" y1="110.1" x2="44.2" y2="108.3"/>
			<polyline id="XMLID_16_" class="st0" points="80.2,101.5 80.2,101.5 80.5,105 			"/>
			<line id="XMLID_15_" class="st0" x1="69.6" y1="22.3" x2="73.4" y2="23"/>
			<polyline id="XMLID_14_" class="st0" points="25.2,51.1 26.6,54.7 26.6,54.7 			"/>
		</g>
	</g>
</g>
<g id="XMLID_239_">
	<text transform="matrix(1 0 0 1 78.4839 69.4658)" class="st2 st3">β</text>
</g>
<g id="XMLID_236_">
	<text transform="matrix(1 0 0 1 5.1196 13.8994)" class="st2 st3">α</text>
</g>
<line id="XMLID_21_" class="st0" x1="17.3" y1="11.4" x2="35.5" y2="24.2"/>
</svg>
